<svg version="1.1" xmlns="http://www.w3.org/2000/svg" viewBox="0 0 1370.874234174467 493.9757964580422" width="800" height="400">
  <!-- svg-source:excalidraw -->

  <defs>
    <style>
      @font-face {
        font-family: "Virgil";
        src: url("https://excalidraw.com/Virgil.woff2");
      }
      @font-face {
        font-family: "Cascadia";
        src: url("https://excalidraw.com/Cascadia.woff2");
      }
    </style>
  </defs>
  <rect x="0" y="0" width="1370.874234174467" height="493.9757964580422" stroke="transparent" fill="#ffffff" fill-opacity="0"></rect>
  <g stroke-linecap="round" transform="translate(10 38.84762262991694) rotate(0 373.8460286458333 222.56408691406264)">
    <path d="M1.11 2.43 L751.56 -3.01 L748.65 442.4 L0.31 444.83" stroke="none" stroke-width="0" fill="#228be6"></path>
    <path d="M0.08 -0.8 C208.06 -0.24, 414.01 0.16, 748.2 -0.79 M0.11 -0.1 C270.86 0.92, 540.66 0.7, 747.68 -0.15 M748.8 -1.44 C747.39 102.71, 747.87 201.46, 748.22 445.74 M748.17 -0.42 C744.78 139.64, 743.51 279.36, 748.51 445.78 M747.59 443.59 C526.98 438.46, 304.87 439.62, -0.08 445.18 M747.1 445.17 C449.79 441.7, 152.82 442.77, 0.13 444.45 M1.73 443.9 C1.3 316.15, 2.06 188.08, -0.79 1.48 M0.73 444.85 C-2.33 348.73, -1.36 252.81, -0.55 0.48" stroke="#1864ab" stroke-width="1" fill="none"></path>
  </g>
  <g transform="translate(30.820638020833485 56.629666086948305) rotate(0 92.50000000000006 23)">
    <text x="0" y="32" font-family="Virgil, Segoe UI Emoji" font-size="36px" fill="#ffffff" text-anchor="start" style="white-space: pre;" direction="ltr">Application</text>
  </g>
  <g stroke-linecap="round" transform="translate(149.53849283854174 125.00154312145361) rotate(0 297.4359639485677 172.82056172688806)">
    <path d="M2.53 -2.21 L595.95 3.57 L595.59 343.96 L2.7 342.22" stroke="none" stroke-width="0" fill="#fd7e14"></path>
    <path d="M1.12 0.66 C215.75 1.47, 431.3 0.14, 596.3 0.94 M-0.7 -0.15 C221.55 -1.88, 441.04 -1.44, 595.64 0.5 M593.81 0.4 C598.54 138.07, 601.57 274.01, 597.02 347.84 M594.54 0.28 C591.59 89.97, 591.2 178.88, 594.3 346.87 M595.82 346.47 C456.88 345.86, 315.02 346.3, -0.24 345.79 M595.48 344.93 C373.81 343.84, 150.91 344.79, -0.13 345.53 M1.54 346.37 C-0.03 232.72, -0.66 119.12, -1.56 1.36 M0.97 345.39 C2.15 225.17, 2.41 106.49, 0.18 -0.02" stroke="#e67700" stroke-width="1" fill="none"></path>
  </g>
  <g transform="translate(179.5385945638019 147.84757176728687) rotate(0 155.5 23)">
    <text x="0" y="32" font-family="Virgil, Segoe UI Emoji" font-size="36px" fill="#ffffff" text-anchor="start" style="white-space: pre;" direction="ltr">OpenFeature SDK</text>
  </g>
  <g stroke-linecap="round" transform="translate(321.8463338216146 216.28358657848486) rotate(0 205.12822469075525 122.05128987630212)">
    <path d="M-2.51 -2 L411.19 -3.46 L411.2 241 L-2.16 245.18" stroke="none" stroke-width="0" fill="#82c91e"></path>
    <path d="M-0.19 0.08 C88.23 0.44, 175.06 3.07, 411.95 2.16 M-0.58 0.2 C142.25 -0.22, 283.88 0.46, 410.03 -0.87 M411.35 -3.06 C413.38 72.84, 410.62 145.11, 410.96 244.6 M409.26 0.28 C408.55 77.88, 409.14 157.33, 411.55 243.04 M411.79 245.93 C326.02 242.67, 239.26 242.84, 2.05 244.05 M409.34 244.05 C324.42 241.47, 239.01 241.17, -0.31 244.81 M-1.84 242.88 C3.26 166.61, 4.91 85.53, -0.32 -2.26 M-0.22 243.57 C0.37 154.96, 0.44 62.37, -0.29 1.65" stroke="#5c940d" stroke-width="1" fill="none"></path>
  </g>
  <g transform="translate(350.0513916015626 237.65536188772973) rotate(0 171.5 23)">
    <text x="0" y="32" font-family="Virgil, Segoe UI Emoji" font-size="36px" fill="#ffffff" text-anchor="start" style="white-space: pre;" direction="ltr">Provider (pluggable)</text>
  </g>
  <g stroke-linecap="round" transform="translate(457.23095703125034 340.38611546845885) rotate(0 130.78214518229163 53.076883951822936)">
    <path d="M-2.26 2.85 L262.38 0.44 L261.59 103.83 L1.82 102.82" stroke="none" stroke-width="0" fill="#4c6ef5"></path>
    <path d="M-2.35 -1.05 C59.52 0.28, 113.54 -2.62, 264.07 2.03 M-0.5 0.12 C87.32 -1.26, 176.49 -0.08, 262.19 -0.85 M264.92 -1.8 C260.98 36.44, 261.41 74.79, 260.82 107.95 M261.62 0.15 C260.95 28.77, 260.58 56.29, 260.02 106.73 M260.07 107.47 C182.79 107.4, 110.87 111.55, -1.02 105.66 M260.93 106.75 C183.31 107.56, 107.03 107.12, -1.32 104.56 M-2.6 103.47 C1.21 66.01, -2.46 25.64, -2.83 3.72 M1.35 106.48 C-3.39 83.47, -2.3 60.48, -0.19 0.89" stroke="#364fc7" stroke-width="1" fill="none"></path>
  </g>
  <g transform="translate(462.23095703125034 370.46299942028173) rotate(0 125.5 23)">
    <text x="125.5" y="32" font-family="Virgil, Segoe UI Emoji" font-size="36px" fill="#ffffff" text-anchor="middle" style="white-space: pre;" direction="ltr">Vendor SDK</text>
  </g>
  <g stroke-linecap="round">
    <g transform="translate(719.7949422200521 403.3990142314795) rotate(0 104.83165325117295 -107.47781899323058)">
      <path d="M0.54 0.29 C29.65 -13.91, 156.09 -57.47, 175.47 -85.8 C194.86 -114.13, 111.12 -148.11, 116.84 -169.68 C122.55 -191.26, 194.5 -207.81, 209.77 -215.24 M-0.63 -0.61 C28.34 -14.61, 155.15 -56.61, 175.11 -84.61 C195.07 -112.61, 113.28 -147.02, 119.15 -168.6 C125.01 -190.18, 195.11 -206.01, 210.3 -214.06" stroke="#ffffff" stroke-width="1" fill="none"></path>
    </g>
    <g transform="translate(719.7949422200521 403.3990142314795) rotate(0 104.83165325117295 -107.47781899323058)">
      <path d="M187.86 -192.85 C194.84 -203.83, 203.69 -208.24, 210.53 -215.35 M186.89 -194.32 C196.46 -203.13, 204.95 -210.94, 210.08 -214.61" stroke="#ffffff" stroke-width="1" fill="none"></path>
    </g>
    <g transform="translate(719.7949422200521 403.3990142314795) rotate(0 104.83165325117295 -107.47781899323058)">
      <path d="M180.77 -212.11 C190.28 -215.99, 201.75 -213.28, 210.53 -215.35 M179.81 -213.58 C192.36 -214.84, 203.64 -215.06, 210.08 -214.61" stroke="#ffffff" stroke-width="1" fill="none"></path>
    </g>
  </g>
  <g stroke-linecap="round">
    <g transform="translate(970.6134121086806 232.71381547572486) rotate(0 166.8503435687577 -0.3497229517893743)">
      <path d="M-0.71 -0.3 C54.95 -0.36, 278.58 0.69, 334.41 0.81 M1.12 -1.51 C56.64 -1.37, 278.34 -0.71, 333.78 -0.73" stroke="#ffffff" stroke-width="4" fill="none"></path>
    </g>
  </g>
  <g stroke-linecap="round">
    <g transform="translate(970.9857781754712 227.78323011736433) rotate(0 -3.8864606800867705 -49.38365211182568)">
      <path d="M1.01 5.08 C-2.17 4.43, -12.41 2.11, -16.62 -0.13 C-20.83 -2.36, -21.93 -4.43, -24.25 -8.33 C-26.57 -12.23, -29.63 -15.53, -30.55 -23.53 C-31.46 -31.53, -31.07 -48.54, -29.74 -56.31 C-28.4 -64.08, -26.33 -64.74, -22.52 -70.15 C-18.7 -75.55, -13.03 -83.31, -6.84 -88.75 C-0.65 -94.19, 9.62 -100.63, 14.64 -102.8 C19.66 -104.97, 21.79 -101.66, 23.27 -101.76 M3.05 4.36 C-0.29 3.41, -12.36 -0.12, -16.98 -1.99 C-21.6 -3.86, -22.42 -3.4, -24.65 -6.85 C-26.89 -10.31, -29.82 -14.54, -30.39 -22.74 C-30.96 -30.93, -29.04 -48.05, -28.06 -56.02 C-27.09 -63.99, -28.26 -64.96, -24.55 -70.57 C-20.83 -76.19, -12.25 -84.32, -5.79 -89.73 C0.67 -95.14, 9.66 -100.89, 14.22 -103.04 C18.79 -105.18, 19.88 -102.39, 21.58 -102.59" stroke="#ffffff" stroke-width="4" fill="none"></path>
    </g>
  </g>
  <g stroke-linecap="round">
    <g transform="translate(993.8805220660566 117.2968753695169) rotate(0 69.30494654330812 -50.78289883461588)">
      <path d="M1.11 5.73 C-0.55 -0.62, -8.13 -23.49, -10.16 -33.78 C-12.19 -44.07, -11.64 -50.01, -11.06 -56.01 C-10.48 -62.01, -10.32 -64.28, -6.67 -69.8 C-3.02 -75.32, 4.47 -84.12, 10.85 -89.15 C17.22 -94.17, 25.01 -97.3, 31.58 -99.95 C38.14 -102.6, 41.49 -103.96, 50.22 -105.06 C58.96 -106.16, 72.48 -107.62, 83.97 -106.54 C95.45 -105.46, 111.97 -101.01, 119.14 -98.58 C126.3 -96.15, 121.75 -99.63, 126.97 -91.98 C132.19 -84.34, 146.48 -59.17, 150.44 -52.72 M-0.02 5.27 C-1.74 -1.4, -8.91 -25.53, -10.85 -35.54 C-12.79 -45.55, -12.36 -49.18, -11.67 -54.79 C-10.98 -60.4, -10.23 -63.59, -6.74 -69.21 C-3.25 -74.84, 3.16 -83.31, 9.27 -88.54 C15.39 -93.77, 22.95 -97.71, 29.94 -100.59 C36.94 -103.47, 42.39 -104.75, 51.24 -105.8 C60.09 -106.85, 71.92 -107.89, 83.05 -106.9 C94.18 -105.9, 110.62 -102.27, 118.02 -99.84 C125.41 -97.42, 121.94 -100.42, 127.41 -92.35 C132.88 -84.28, 147.17 -57.9, 150.86 -51.45" stroke="#ffffff" stroke-width="4" fill="none"></path>
    </g>
  </g>
  <g stroke-linecap="round">
    <g transform="translate(1142.248416789338 61.49816010543907) rotate(0 64.35198139701549 15.676054491296384)">
      <path d="M1.12 1.19 C4.39 -0.87, 12.06 -8.07, 19.34 -11.05 C26.62 -14.03, 31.45 -16.82, 44.81 -16.71 C58.17 -16.59, 86.73 -14.05, 99.48 -10.37 C112.23 -6.7, 116.46 -4.39, 121.29 5.35 C126.12 15.09, 127.2 41.03, 128.46 48.06 M0.24 0.4 C3.45 -2.09, 11.47 -10.33, 18.76 -13.01 C26.04 -15.7, 30.54 -16.31, 43.95 -15.7 C57.36 -15.1, 86.53 -12.44, 99.21 -9.37 C111.89 -6.31, 115.47 -6.76, 120.04 2.7 C124.6 12.16, 125.55 40.12, 126.62 47.39" stroke="#ffffff" stroke-width="4" fill="none"></path>
    </g>
  </g>
  <g stroke-linecap="round">
    <g transform="translate(1300.8610976931936 226.8505087058008) rotate(0 17.345327088316253 -61.205742482476694)">
      <path d="M1.6 6.24 C6.55 3.31, 23.23 -4.12, 31.46 -10.89 C39.68 -17.66, 46.55 -27.2, 50.97 -34.4 C55.39 -41.6, 56.57 -45.85, 57.97 -54.1 C59.36 -62.36, 60.93 -75.11, 59.35 -83.94 C57.77 -92.76, 53.69 -100.23, 48.46 -107.06 C43.24 -113.89, 34.66 -121.45, 27.98 -124.92 C21.31 -128.38, 15.83 -128.34, 8.41 -127.85 C0.99 -127.37, -10.91 -124.06, -16.53 -122.01 C-22.16 -119.96, -23.91 -116.55, -25.32 -115.56 M0.39 5.56 C5.16 3.33, 22.41 -2.92, 30.66 -9.45 C38.91 -15.97, 45.31 -26.38, 49.89 -33.6 C54.46 -40.82, 56.68 -44.52, 58.11 -52.78 C59.54 -61.04, 60.41 -74.03, 58.49 -83.15 C56.57 -92.26, 51.55 -100.3, 46.59 -107.49 C41.63 -114.68, 35.17 -122.85, 28.73 -126.28 C22.29 -129.71, 15.2 -128.57, 7.94 -128.07 C0.67 -127.58, -9.48 -125.37, -14.88 -123.31 C-20.28 -121.26, -22.86 -117.1, -24.46 -115.73" stroke="#ffffff" stroke-width="4" fill="none"></path>
    </g>
  </g>
  <g transform="translate(991.3972167968747 104.70660090140137) rotate(0 154 45.5)">
    <text x="154" y="31.5" font-family="Virgil, Segoe UI Emoji" font-size="36px" fill="#ffffff" text-anchor="middle" style="white-space: pre;" direction="ltr">Feature Flag</text>
    <text x="154" y="77" font-family="Virgil, Segoe UI Emoji" font-size="36px" fill="#ffffff" text-anchor="middle" style="white-space: pre;" direction="ltr">Management Tool</text>
  </g>
</svg>